<svg width="1923" height="549" viewBox="0 0 1923 549" fill="none" xmlns="http://www.w3.org/2000/svg">
<path d="M0 0V543.728H332.451V443.528H116.512V0H0Z" fill="white"/>
<path d="M553.896 139.816C430.396 139.816 348.834 220.599 348.834 344.878C348.834 468.378 428.834 548.388 561.664 548.388C668.08 548.388 738.764 486.247 751.192 410.126H642.447C633.125 445.855 601.279 465.276 557.004 465.276C501.854 465.276 463.015 430.321 463.015 373.618V369.734H754.303C755.079 356.528 755.079 344.877 755.079 333.226C755.079 215.159 672.744 139.815 553.9 139.815M464.574 296.715C472.341 249.333 508.849 221.371 555.453 221.371C605.167 221.371 637.791 248.557 645.558 296.715H464.574Z" fill="white"/>
<path d="M1016.75 139.816C956.166 139.816 918.883 163.116 893.249 194.966L883.929 144.476H788.388V543.728H897.908V334.006C897.908 265.65 928.98 229.919 987.237 229.919C1040.83 229.919 1067.24 264.098 1067.24 330.899V543.728H1176.77V322.353C1176.77 185.646 1103.75 139.816 1016.75 139.816Z" fill="white"/>
<path d="M1517.47 194.19C1492.62 162.342 1453 139.816 1397.07 139.816C1290.66 139.816 1212.21 219.816 1212.21 343.326C1212.21 469.937 1290.66 548.388 1397.85 548.388C1455.33 548.388 1494.94 521.979 1520.58 487.802L1531.45 543.728H1626.99V0H1517.47V194.19ZM1421.93 459.062C1362.12 459.062 1324.06 414.011 1324.06 344.102C1324.06 274.193 1362.12 229.142 1421.93 229.142C1480.97 229.142 1519.03 274.97 1519.03 344.878C1519.03 414.01 1480.97 459.061 1421.93 459.061" fill="white"/>
<path d="M1775.35 146.733H1676.13V543.74H1784.01V237.353H1922.07V146.733H1775.35Z" fill="white"/>
</svg>
