<svg height="105" viewBox="0 0 104 105" width="104" xmlns="http://www.w3.org/2000/svg" xmlns:xlink="http://www.w3.org/1999/xlink"><clipPath id="a"><path d="m1440 0v1024h-1440v-1024z"/></clipPath><clipPath id="b"><path d="m2.10189172 0c.128 0 .224.048.272.192l2.656 8.128 2.656-8.128c.048-.144.144-.192.272-.192h1.888c.17599998 0 .27199998.112.20799998.272l-3.74399998 10.736c-.048.128-.176.192-.304.192h-1.936c-.128 0-.256-.064-.304-.192l-3.744-10.736c-.064-.16.016-.272.192-.272z"/></clipPath><clipPath id="c"><path d="m5.776 0c1.6 0 2.928.624 3.92 1.616.112.112.096.224 0 .336l-1.12 1.2c-.096.112-.224.112-.336.016-.672-.56-1.472-.928-2.464-.928-1.968 0-3.456 1.504-3.456 3.536s1.488 3.52 3.456 3.52c.992 0 1.792-.368 2.464-.928.112-.096.24-.096.336.016l1.12 1.2c.096.096.112.208 0 .32-.992 1.008-2.32 1.632-3.92 1.632-3.2 0-5.776-2.48-5.776-5.76s2.576-5.776 5.776-5.776z"/></clipPath><clipPath id="d"><path d="m5.76 0c3.184 0 5.76 2.528 5.76 5.776 0 3.232-2.576 5.76-5.76 5.76s-5.76-2.528-5.76-5.76c0-3.248 2.576-5.776 5.76-5.776zm0 2.24c-1.952 0-3.44 1.52-3.44 3.536 0 2 1.488 3.52 3.44 3.52 1.968 0 3.44-1.52 3.44-3.52 0-2.016-1.472-3.536-3.44-3.536z"/></clipPath><clipPath id="e"><path d="m2.368 0c.128 0 .224.048.288.16l4 7.376v-7.296c0-.144.096-.24.24-.24h1.808c.144 0 .24.096.24.24v10.72c0 .144-.096.24-.24.24h-2.128c-.128 0-.224-.048-.288-.16l-4-7.376v7.296c0 .144-.096.24-.24.24h-1.808c-.144 0-.24-.096-.24-.24v-10.72c0-.144.096-.24.24-.24z"/></clipPath><clipPath id="f"><path d="m2.048 0c.144 0 .24.096.24.24v8.928h3.424c.144 0 .24.096.24.24v1.552c0 .144-.096.24-.24.24h-5.472c-.144 0-.24-.096-.24-.24v-10.72c0-.144.096-.24.24-.24z"/></clipPath><clipPath id="g"><path d="m2.048 0c.144 0 .24.096.24.24v10.72c0 .144-.096.24-.24.24h-1.808c-.144 0-.24-.096-.24-.24v-10.72c0-.144.096-.24.24-.24z"/></clipPath><clipPath id="h"><path d="m5.936 0c.144 0 .24.096.24.24v1.552c0 .144-.096.24-.24.24h-3.648v2.48h3.44c.144 0 .24.096.24.24v1.552c0 .144-.096.24-.24.24h-3.44v2.624h3.648c.144 0 .24.096.24.24v1.552c0 .144-.096.24-.24.24h-5.696c-.144 0-.24-.096-.24-.24v-10.72c0-.144.096-.24.24-.24z"/></clipPath><filter id="i" filterUnits="userSpaceOnUse" height="177.777778%" width="177.777778%" x="-53.333333%" y="-50%"><feGaussianBlur in="SourceAlpha" result="i9" stdDeviation="7.5"/><feOffset dx="2" dy="5" in="i9" result="i10"/><feColorMatrix in="i10" type="matrix" values="0 0 0 0.0 0 0 0 0 0.0 0 0 0 0 0.0 0 0 0 0 0.1249726835664336 0"/></filter><filter id="j" filterUnits="userSpaceOnUse" height="115.625%" width="115.625%" x="-10.9375%" y="-9.375%"><feGaussianBlur in="SourceAlpha" result="i12" stdDeviation="1"/><feOffset dx="0" dy="1" in="i12" result="i13"/><feColorMatrix in="i13" type="matrix" values="0 0 0 0.0 0 0 0 0 0.0 0 0 0 0 0.0 0 0 0 0 0.1536822552447552 0"/></filter><clipPath id="k"><path d="m48 0c6.627417 0 12 5.372583 12 12v36c0 6.627417-5.372583 12-12 12h-36c-6.627417 0-12-5.372583-12-12v-36c0-6.627417 5.372583-12 12-12z"/></clipPath><clipPath id="l"><path d="m18.75 0c10.3553391 0 18.75 8.39466094 18.75 18.75 0 10.3553391-8.3946609 18.75-18.75 18.75-10.35533906 0-18.75-8.3946609-18.75-18.75 0-10.35533906 8.39466094-18.75 18.75-18.75z"/></clipPath><linearGradient id="m" gradientUnits="userSpaceOnUse" x1="4.454563" x2="30.801848" y1="6.76225" y2="33.051052"><stop offset="0" stop-color="#292929"/><stop offset="1"/></linearGradient><g clip-path="url(#a)" transform="translate(-666 -99)"><g clip-path="url(#b)" transform="translate(666.750108 191.8)"><path d="m0 0h10.0737852v11.2h-10.0737852z" fill="#fff"/></g><g clip-path="url(#c)" transform="translate(680.348 191.672)"><path d="m0 0h9.77411505v11.536h-9.77411505z" fill="#fff"/></g><g clip-path="url(#d)" transform="translate(700.732 191.672)"><path d="m0 0h11.52v11.536h-11.52z" fill="#fff"/></g><g clip-path="url(#e)" transform="translate(717.156 191.8)"><path d="m0 0h8.944v11.2h-8.944z" fill="#fff"/></g><g clip-path="url(#f)" transform="translate(731.308 191.8)"><path d="m0 0h5.952v11.2h-5.952z" fill="#fff"/></g><g clip-path="url(#g)" transform="translate(741.988 191.8)"><path d="m0 0h2.288v11.2h-2.288z" fill="#fff"/></g><g clip-path="url(#e)" transform="translate(749.5 191.8)"><path d="m0 0h8.944v11.2h-8.944z" fill="#fff"/></g><g clip-path="url(#h)" transform="translate(763.652 191.8)"><path d="m0 0h6.176v11.2h-6.176z" fill="#fff"/></g><g transform="translate(690 109)"><path d="m12 0h36c6.627417 0 12 5.372583 12 12v36c0 6.627417-5.372583 12-12 12h-36c-6.627417 0-12-5.372583-12-12v-36c0-6.627417 5.372583-12 12-12z" filter="url(#i)"/><path d="m12 0h36c6.627417 0 12 5.372583 12 12v36c0 6.627417-5.372583 12-12 12h-36c-6.627417 0-12-5.372583-12-12v-36c0-6.627417 5.372583-12 12-12z" filter="url(#j)"/><g clip-path="url(#k)"><path d="m0 0h60v60h-60z" fill="#fff"/></g><g clip-path="url(#l)" transform="translate(11.25 11.25)"><path d="m0 0h37.5v37.5h-37.5z" fill="url(#m)"/></g></g></g></svg>