<svg height="32" viewBox="0 0 32 32" width="32" xmlns="http://www.w3.org/2000/svg" xmlns:xlink="http://www.w3.org/1999/xlink"><defs><circle id="a" cx="16" cy="16" r="16"/><mask id="b" fill="#fff"><use fill="#fff" fill-rule="evenodd" xlink:href="#a"/></mask></defs><g fill="none" fill-rule="nonzero"><use fill="#d7d7d7" xlink:href="#a"/><g mask="url(#b)"><g transform="translate(4 4)"><path d="m15.75 20.25s-.75 3-3.75 3-3.75-3-3.75-3-8.25 1.4895-8.25 9.75h24c0-8.23125-8.25-9.75-8.25-9.75" fill="#b9b9b9"/><path d="m12 24.75c-3.75 0-3.75-4.5-3.75-4.5v-4.5h7.5v4.5s0 4.5-3.75 4.5z" fill="#eee"/><path d="m20.25 11.25c0 .82875-.67125 1.5-1.5 1.5s-1.5-.67125-1.5-1.5.67125-1.5 1.5-1.5 1.5.67125 1.5 1.5m-13.5 0c0 .82875-.67125 1.5-1.5 1.5s-1.5-.67125-1.5-1.5.67125-1.5 1.5-1.5 1.5.67125 1.5 1.5" fill="#f7f7f7"/><path d="m18.75 6.75c0-5.72625-13.5-3.72825-13.5 0v5.25c0 3.72825 3.02175 6.75 6.75 6.75s6.75-3.02175 6.75-6.75z" fill="#f7f7f7"/><path d="m12 0c-4.55625 0-7.5 3.69375-7.5 8.25v1.713l1.5 1.287v-3.75l9-3 3 3v3.75l1.5-1.30575v-1.69425c0-3.01875-.7785-6.01125-4.5-6.75l-.75-1.5z" fill="#424242"/><path d="m14.25 11.25c0 .414.336.75.75.75s.75-.336.75-.75-.336-.75-.75-.75-.75.336-.75.75m-6 0c0 .414.336.75.75.75s.75-.336.75-.75-.336-.75-.75-.75-.75.336-.75.75" fill="#474747"/><path d="m12 24.75c3.75 0 5.05875-2.9475 5.21325-4.071-.86775-.318-1.46325-.429-1.46325-.429s-.75 3-3.75 3-3.75-3-3.75-3-.5955.1095-1.464.4245c.153 1.12125 1.464 4.0755 5.214 4.0755z" fill="#fff"/></g></g></g></svg>